<svg xmlns="http://www.w3.org/2000/svg" enable-background="new 0 0 47.5 47.5" viewBox="0 0 47.5 47.5"><defs><clipPath id="a" clipPathUnits="userSpaceOnUse"><path d="M 0,38 38,38 38,0 0,0 0,38 Z"/></clipPath></defs><g clip-path="url(#a)" transform="matrix(1.25 0 0 -1.25 0 47.5)"><path fill="#3b88c3" d="m 0,0 c 0,-2.209 -1.791,-4 -4,-4 l -28,0 c -2.209,0 -4,1.791 -4,4 l 0,28 c 0,2.209 1.791,4 4,4 l 28,0 c 2.209,0 4,-1.791 4,-4 L 0,0 Z" transform="translate(37 5)"/><path fill="#fff" d="m 0,0 c 0,2.356 -0.217,7.193 -3.379,7.193 -3.163,0 -3.38,-4.837 -3.38,-7.193 0,-2.201 0.217,-7.193 3.38,-7.193 C -0.217,-7.193 0,-2.201 0,0 m -11.596,0 c 0,5.054 1.954,11.41 8.217,11.41 6.264,0 8.217,-6.356 8.217,-11.41 0,-5.054 -1.953,-11.41 -8.217,-11.41 -6.263,0 -8.217,6.356 -8.217,11.41" transform="translate(22.38 19.038)"/></g></svg>